<?xml version="1.0" encoding="UTF-8" standalone="no"?><svg xmlns="http://www.w3.org/2000/svg" xmlns:xlink="http://www.w3.org/1999/xlink" contentScriptType="application/ecmascript" contentStyleType="text/css" height="562px" preserveAspectRatio="none" style="width:1142px;height:562px;" version="1.1" viewBox="0 0 1142 562" width="1142px" zoomAndPan="magnify"><defs><filter height="300%" id="f1jgd9znlngkgi" width="300%" x="-1" y="-1"><feGaussianBlur result="blurOut" stdDeviation="2.0"/><feColorMatrix in="blurOut" result="blurOut2" type="matrix" values="0 0 0 0 0 0 0 0 0 0 0 0 0 0 0 0 0 0 .4 0"/><feOffset dx="4.0" dy="4.0" in="blurOut2" result="blurOut3"/><feBlend in="SourceGraphic" in2="blurOut3" mode="normal"/></filter></defs><g><!--cluster TechnicalWorkflows--><polygon fill="#FFFFFF" filter="url(#f1jgd9znlngkgi)" points="24,124,189,124,196,146.2969,292,146.2969,292,550,24,550,24,124" style="stroke: #000000; stroke-width: 1.5;"/><line style="stroke: #000000; stroke-width: 1.5;" x1="24" x2="196" y1="146.2969" y2="146.2969"/><text fill="#000000" font-family="sans-serif" font-size="14" font-weight="bold" lengthAdjust="spacingAndGlyphs" textLength="159" x="28" y="138.9951">TechnicalWorkflows</text><!--cluster TechnicalWorkflowSequences--><polygon fill="#FFFFFF" filter="url(#f1jgd9znlngkgi)" points="866,130.5,1110,130.5,1117,152.7969,1120,152.7969,1120,251.5,866,251.5,866,130.5" style="stroke: #000000; stroke-width: 1.5;"/><line style="stroke: #000000; stroke-width: 1.5;" x1="866" x2="1117" y1="152.7969" y2="152.7969"/><text fill="#000000" font-family="sans-serif" font-size="14" font-weight="bold" lengthAdjust="spacingAndGlyphs" textLength="238" x="870" y="145.4951">TechnicalWorkflowSequences</text><!--cluster InterventionModels--><polygon fill="#FFFFFF" filter="url(#f1jgd9znlngkgi)" points="300,143,458,143,465,165.2969,508,165.2969,508,404,300,404,300,143" style="stroke: #000000; stroke-width: 1.5;"/><line style="stroke: #000000; stroke-width: 1.5;" x1="300" x2="465" y1="165.2969" y2="165.2969"/><text fill="#000000" font-family="sans-serif" font-size="14" font-weight="bold" lengthAdjust="spacingAndGlyphs" textLength="152" x="304" y="157.9951">InterventionModels</text><!--cluster Variants--><polygon fill="#FFFFFF" filter="url(#f1jgd9znlngkgi)" points="516,16,587,16,594,38.2969,831,38.2969,831,531,516,531,516,16" style="stroke: #000000; stroke-width: 1.5;"/><line style="stroke: #000000; stroke-width: 1.5;" x1="516" x2="594" y1="38.2969" y2="38.2969"/><text fill="#000000" font-family="sans-serif" font-size="14" font-weight="bold" lengthAdjust="spacingAndGlyphs" textLength="65" x="520" y="30.9951">Variants</text><!--class technical_worflows--><rect fill="#FEFECE" filter="url(#f1jgd9znlngkgi)" height="99.2188" id="technical_worflows" style="stroke: #A80036; stroke-width: 1.5;" width="148" x="111" y="151"/><ellipse cx="126" cy="167" fill="#DA70D6" rx="11" ry="11" style="stroke: #A80036; stroke-width: 1.0;"/><path d="M122.875,173 L122.875,160.6094 L125.3125,160.6094 L125.3125,170.8438 L130.5469,170.8438 L130.5469,173 L122.875,173 Z "/><text fill="#000000" font-family="sans-serif" font-size="12" lengthAdjust="spacingAndGlyphs" textLength="116" x="140" y="171.1543">technical_worflows</text><line style="stroke: #A80036; stroke-width: 1.5;" x1="112" x2="258" y1="183" y2="183"/><polygon fill="none" points="122,190.9023,118,196.9023,126,196.9023" style="stroke: #1963A0; stroke-width: 1.0;"/><text fill="#000000" font-family="sans-serif" font-size="11" lengthAdjust="spacingAndGlyphs" textLength="34" x="131" y="197.2104">family</text><polygon fill="none" points="122,203.707,118,209.707,126,209.707" style="stroke: #1963A0; stroke-width: 1.0;"/><text fill="#000000" font-family="sans-serif" font-size="11" lengthAdjust="spacingAndGlyphs" textLength="37" x="131" y="210.0151">specie</text><polygon fill="none" points="122,216.5117,118,222.5117,126,222.5117" style="stroke: #1963A0; stroke-width: 1.0;"/><text fill="#000000" font-family="sans-serif" font-size="11" lengthAdjust="spacingAndGlyphs" textLength="108" x="131" y="222.8198">production_system</text><polygon fill="none" points="122,229.3164,118,235.3164,126,235.3164" style="stroke: #1963A0; stroke-width: 1.0;"/><text fill="#000000" font-family="sans-serif" font-size="11" lengthAdjust="spacingAndGlyphs" textLength="21" x="131" y="235.6245">unit</text><line style="stroke: #A80036; stroke-width: 1.5;" x1="112" x2="258" y1="242.2188" y2="242.2188"/><!--class technical_worflow_procedures--><rect fill="#FEFECE" filter="url(#f1jgd9znlngkgi)" height="60.8047" id="technical_worflow_procedures" style="stroke: #A80036; stroke-width: 1.5;" width="219" x="54.5" y="322.5"/><ellipse cx="69.5" cy="338.5" fill="#DA70D6" rx="11" ry="11" style="stroke: #A80036; stroke-width: 1.0;"/><path d="M66.375,344.5 L66.375,332.1094 L68.8125,332.1094 L68.8125,342.3438 L74.0469,342.3438 L74.0469,344.5 L66.375,344.5 Z "/><text fill="#000000" font-family="sans-serif" font-size="12" lengthAdjust="spacingAndGlyphs" textLength="187" x="83.5" y="342.6543">technical_worflow_procedures</text><line style="stroke: #A80036; stroke-width: 1.5;" x1="55.5" x2="272.5" y1="354.5" y2="354.5"/><polygon fill="none" points="65.5,362.4023,61.5,368.4023,69.5,368.4023" style="stroke: #1963A0; stroke-width: 1.0;"/><text fill="#000000" font-family="sans-serif" font-size="11" lengthAdjust="spacingAndGlyphs" textLength="119" x="74.5" y="368.7104">procedure_reference</text><line style="stroke: #A80036; stroke-width: 1.5;" x1="55.5" x2="272.5" y1="375.3047" y2="375.3047"/><!--class technical_worflow_procedure_items--><rect fill="#FEFECE" filter="url(#f1jgd9znlngkgi)" height="86.4141" id="technical_worflow_procedure_items" style="stroke: #A80036; stroke-width: 1.5;" width="252" x="32" y="456"/><ellipse cx="47" cy="472" fill="#DA70D6" rx="11" ry="11" style="stroke: #A80036; stroke-width: 1.0;"/><path d="M43.875,478 L43.875,465.6094 L46.3125,465.6094 L46.3125,475.8438 L51.5469,475.8438 L51.5469,478 L43.875,478 Z "/><text fill="#000000" font-family="sans-serif" font-size="12" lengthAdjust="spacingAndGlyphs" textLength="220" x="61" y="476.1543">technical_worflow_procedure_items</text><line style="stroke: #A80036; stroke-width: 1.5;" x1="33" x2="283" y1="488" y2="488"/><polygon fill="none" points="43,495.9023,39,501.9023,47,501.9023" style="stroke: #1963A0; stroke-width: 1.0;"/><text fill="#000000" font-family="sans-serif" font-size="11" lengthAdjust="spacingAndGlyphs" textLength="90" x="52" y="502.2104">actor_reference</text><polygon fill="none" points="43,508.707,39,514.707,47,514.707" style="stroke: #1963A0; stroke-width: 1.0;"/><text fill="#000000" font-family="sans-serif" font-size="11" lengthAdjust="spacingAndGlyphs" textLength="150" x="52" y="515.0151">procedure_item_reference</text><polygon fill="none" points="43,521.5117,39,527.5117,47,527.5117" style="stroke: #1963A0; stroke-width: 1.0;"/><text fill="#000000" font-family="sans-serif" font-size="11" lengthAdjust="spacingAndGlyphs" textLength="21" x="52" y="527.8198">unit</text><line style="stroke: #A80036; stroke-width: 1.5;" x1="33" x2="283" y1="534.4141" y2="534.4141"/><!--class technical_worflow_sequences--><rect fill="#FEFECE" filter="url(#f1jgd9znlngkgi)" height="86.4141" id="technical_worflow_sequences" style="stroke: #A80036; stroke-width: 1.5;" width="216" x="884" y="157.5"/><ellipse cx="899" cy="173.5" fill="#DA70D6" rx="11" ry="11" style="stroke: #A80036; stroke-width: 1.0;"/><path d="M895.875,179.5 L895.875,167.1094 L898.3125,167.1094 L898.3125,177.3438 L903.5469,177.3438 L903.5469,179.5 L895.875,179.5 Z "/><text fill="#000000" font-family="sans-serif" font-size="12" lengthAdjust="spacingAndGlyphs" textLength="184" x="913" y="177.6543">technical_worflow_sequences</text><line style="stroke: #A80036; stroke-width: 1.5;" x1="885" x2="1099" y1="189.5" y2="189.5"/><polygon fill="none" points="895,197.4023,891,203.4023,899,203.4023" style="stroke: #1963A0; stroke-width: 1.0;"/><text fill="#000000" font-family="sans-serif" font-size="11" lengthAdjust="spacingAndGlyphs" textLength="34" x="904" y="203.7104">family</text><polygon fill="none" points="895,210.207,891,216.207,899,216.207" style="stroke: #1963A0; stroke-width: 1.0;"/><text fill="#000000" font-family="sans-serif" font-size="11" lengthAdjust="spacingAndGlyphs" textLength="37" x="904" y="216.5151">specie</text><polygon fill="none" points="895,223.0117,891,229.0117,899,229.0117" style="stroke: #1963A0; stroke-width: 1.0;"/><text fill="#000000" font-family="sans-serif" font-size="11" lengthAdjust="spacingAndGlyphs" textLength="108" x="904" y="229.3198">production_system</text><line style="stroke: #A80036; stroke-width: 1.5;" x1="885" x2="1099" y1="235.9141" y2="235.9141"/><!--class intervention_models--><rect fill="#FEFECE" filter="url(#f1jgd9znlngkgi)" height="60.8047" id="intervention_models" style="stroke: #A80036; stroke-width: 1.5;" width="158" x="316" y="170"/><ellipse cx="331" cy="186" fill="#DA70D6" rx="11" ry="11" style="stroke: #A80036; stroke-width: 1.0;"/><path d="M327.875,192 L327.875,179.6094 L330.3125,179.6094 L330.3125,189.8438 L335.5469,189.8438 L335.5469,192 L327.875,192 Z "/><text fill="#000000" font-family="sans-serif" font-size="12" lengthAdjust="spacingAndGlyphs" textLength="126" x="345" y="190.1543">intervention_models</text><line style="stroke: #A80036; stroke-width: 1.5;" x1="317" x2="473" y1="202" y2="202"/><polygon fill="none" points="327,209.9023,323,215.9023,331,215.9023" style="stroke: #1963A0; stroke-width: 1.0;"/><text fill="#000000" font-family="sans-serif" font-size="11" lengthAdjust="spacingAndGlyphs" textLength="119" x="336" y="216.2104">procedure_reference</text><line style="stroke: #A80036; stroke-width: 1.5;" x1="317" x2="473" y1="222.8047" y2="222.8047"/><!--class intervention_model_items--><rect fill="#FEFECE" filter="url(#f1jgd9znlngkgi)" height="86.4141" id="intervention_model_items" style="stroke: #A80036; stroke-width: 1.5;" width="191" x="308.5" y="310"/><ellipse cx="323.5" cy="326" fill="#DA70D6" rx="11" ry="11" style="stroke: #A80036; stroke-width: 1.0;"/><path d="M320.375,332 L320.375,319.6094 L322.8125,319.6094 L322.8125,329.8438 L328.0469,329.8438 L328.0469,332 L320.375,332 Z "/><text fill="#000000" font-family="sans-serif" font-size="12" lengthAdjust="spacingAndGlyphs" textLength="159" x="337.5" y="330.1543">intervention_model_items</text><line style="stroke: #A80036; stroke-width: 1.5;" x1="309.5" x2="498.5" y1="342" y2="342"/><polygon fill="none" points="319.5,349.9023,315.5,355.9023,323.5,355.9023" style="stroke: #1963A0; stroke-width: 1.0;"/><text fill="#000000" font-family="sans-serif" font-size="11" lengthAdjust="spacingAndGlyphs" textLength="150" x="328.5" y="356.2104">procedure_item_reference</text><polygon fill="none" points="319.5,362.707,315.5,368.707,323.5,368.707" style="stroke: #1963A0; stroke-width: 1.0;"/><text fill="#000000" font-family="sans-serif" font-size="11" lengthAdjust="spacingAndGlyphs" textLength="87" x="328.5" y="369.0151">indicator_name</text><polygon fill="none" points="319.5,375.5117,315.5,381.5117,323.5,381.5117" style="stroke: #1963A0; stroke-width: 1.0;"/><text fill="#000000" font-family="sans-serif" font-size="11" lengthAdjust="spacingAndGlyphs" textLength="76" x="328.5" y="381.8198">indicator_unit</text><line style="stroke: #A80036; stroke-width: 1.5;" x1="309.5" x2="498.5" y1="388.4141" y2="388.4141"/><!--class variant_categories--><rect fill="#FEFECE" filter="url(#f1jgd9znlngkgi)" height="48" id="variant_categories" style="stroke: #A80036; stroke-width: 1.5;" width="148" x="675" y="43"/><ellipse cx="690" cy="59" fill="#DA70D6" rx="11" ry="11" style="stroke: #A80036; stroke-width: 1.0;"/><path d="M686.875,65 L686.875,52.6094 L689.3125,52.6094 L689.3125,62.8438 L694.5469,62.8438 L694.5469,65 L686.875,65 Z "/><text fill="#000000" font-family="sans-serif" font-size="12" lengthAdjust="spacingAndGlyphs" textLength="116" x="704" y="63.1543">variant_categories</text><line style="stroke: #A80036; stroke-width: 1.5;" x1="676" x2="822" y1="75" y2="75"/><line style="stroke: #A80036; stroke-width: 1.5;" x1="676" x2="822" y1="83" y2="83"/><!--class variant_types--><rect fill="#FEFECE" filter="url(#f1jgd9znlngkgi)" height="48" id="variant_types" style="stroke: #A80036; stroke-width: 1.5;" width="115" x="524.5" y="43"/><ellipse cx="539.5" cy="59" fill="#DA70D6" rx="11" ry="11" style="stroke: #A80036; stroke-width: 1.0;"/><path d="M536.375,65 L536.375,52.6094 L538.8125,52.6094 L538.8125,62.8438 L544.0469,62.8438 L544.0469,65 L536.375,65 Z "/><text fill="#000000" font-family="sans-serif" font-size="12" lengthAdjust="spacingAndGlyphs" textLength="83" x="553.5" y="63.1543">variant_types</text><line style="stroke: #A80036; stroke-width: 1.5;" x1="525.5" x2="638.5" y1="75" y2="75"/><line style="stroke: #A80036; stroke-width: 1.5;" x1="525.5" x2="638.5" y1="83" y2="83"/><!--class variants--><rect fill="#FEFECE" filter="url(#f1jgd9znlngkgi)" height="48" id="variants" style="stroke: #A80036; stroke-width: 1.5;" width="82" x="681" y="176.5"/><ellipse cx="696" cy="192.5" fill="#DA70D6" rx="11" ry="11" style="stroke: #A80036; stroke-width: 1.0;"/><path d="M692.875,198.5 L692.875,186.1094 L695.3125,186.1094 L695.3125,196.3438 L700.5469,196.3438 L700.5469,198.5 L692.875,198.5 Z "/><text fill="#000000" font-family="sans-serif" font-size="12" lengthAdjust="spacingAndGlyphs" textLength="50" x="710" y="196.6543">variants</text><line style="stroke: #A80036; stroke-width: 1.5;" x1="682" x2="762" y1="208.5" y2="208.5"/><line style="stroke: #A80036; stroke-width: 1.5;" x1="682" x2="762" y1="216.5" y2="216.5"/><!--class prices--><rect fill="#FEFECE" filter="url(#f1jgd9znlngkgi)" height="48" id="prices" style="stroke: #A80036; stroke-width: 1.5;" width="70" x="687" y="329"/><ellipse cx="702" cy="345" fill="#DA70D6" rx="11" ry="11" style="stroke: #A80036; stroke-width: 1.0;"/><path d="M698.875,351 L698.875,338.6094 L701.3125,338.6094 L701.3125,348.8438 L706.5469,348.8438 L706.5469,351 L698.875,351 Z "/><text fill="#000000" font-family="sans-serif" font-size="12" lengthAdjust="spacingAndGlyphs" textLength="38" x="716" y="349.1543">prices</text><line style="stroke: #A80036; stroke-width: 1.5;" x1="688" x2="756" y1="361" y2="361"/><line style="stroke: #A80036; stroke-width: 1.5;" x1="688" x2="756" y1="369" y2="369"/><!--class units--><rect fill="#FEFECE" filter="url(#f1jgd9znlngkgi)" height="48" id="units" style="stroke: #A80036; stroke-width: 1.5;" width="63" x="690.5" y="475"/><ellipse cx="705.5" cy="491" fill="#DA70D6" rx="11" ry="11" style="stroke: #A80036; stroke-width: 1.0;"/><path d="M702.375,497 L702.375,484.6094 L704.8125,484.6094 L704.8125,494.8438 L710.0469,494.8438 L710.0469,497 L702.375,497 Z "/><text fill="#000000" font-family="sans-serif" font-size="12" lengthAdjust="spacingAndGlyphs" textLength="31" x="719.5" y="495.1543">units</text><line style="stroke: #A80036; stroke-width: 1.5;" x1="691.5" x2="752.5" y1="507" y2="507"/><line style="stroke: #A80036; stroke-width: 1.5;" x1="691.5" x2="752.5" y1="515" y2="515"/><ellipse cx="11" cy="200.5" fill="#FEFECE" filter="url(#f1jgd9znlngkgi)" rx="5" ry="5" style="stroke: #A80036; stroke-width: 1.5;"/><text fill="#000000" font-family="sans-serif" font-size="12" lengthAdjust="spacingAndGlyphs" textLength="46" x="-12" y="216.6387">articles</text><ellipse cx="844" cy="200.5" fill="#FEFECE" filter="url(#f1jgd9znlngkgi)" rx="5" ry="5" style="stroke: #A80036; stroke-width: 1.5;"/><text fill="#000000" font-family="sans-serif" font-size="12" lengthAdjust="spacingAndGlyphs" textLength="51" x="818.5" y="216.6387">services</text><ellipse cx="863" cy="67" fill="#FEFECE" filter="url(#f1jgd9znlngkgi)" rx="5" ry="5" style="stroke: #A80036; stroke-width: 1.5;"/><text fill="#000000" font-family="sans-serif" font-size="12" lengthAdjust="spacingAndGlyphs" textLength="36" x="845" y="83.1387">doers</text><ellipse cx="908" cy="67" fill="#FEFECE" filter="url(#f1jgd9znlngkgi)" rx="5" ry="5" style="stroke: #A80036; stroke-width: 1.5;"/><text fill="#000000" font-family="sans-serif" font-size="12" lengthAdjust="spacingAndGlyphs" textLength="82" x="867" y="83.1387">equipements</text><!--link variantslol17 to variants--><path d="M10.2702,195.3782 C8.102,177.8903 3.7968,120.8833 37.5,107.5 C85.1062,88.5959 448.2701,97.4665 498.5,107.5 C565.2652,120.8365 637.0316,154.536 680.7334,177.4859 " fill="none" id="variantslol17-variants" style="stroke: #A80036; stroke-width: 1.0;"/><!--link variantslol20 to variants--><path d="M838.9663,200.5 C813.7979,200.5 788.6294,200.5 763.4609,200.5 " fill="none" id="variantslol20-variants" style="stroke: #A80036; stroke-width: 1.0;"/><!--link variantslol23 to variants--><path d="M859.2966,70.78 C854.6143,75.5414 846.2843,83.9529 839,91 C808.2075,120.7897 772.1226,154.3643 748.2558,176.3898 " fill="none" id="variantslol23-variants" style="stroke: #A80036; stroke-width: 1.0;"/><!--link variantslol26 to variants--><path d="M904.9437,71.1497 C901.0007,76.2924 893.7251,85.0973 886,91 C860.5706,110.4304 849.0371,106.8772 822,124 C796.8851,139.9054 770.2322,160.5017 750.7634,176.3158 " fill="none" id="variantslol26-variants" style="stroke: #A80036; stroke-width: 1.0;"/><!--link variants to intervention_model_items--><path d="M668.8715,225.9783 C621.2579,248.8119 550.4277,282.7792 493.9902,309.8443 " fill="none" id="variants-intervention_model_items" style="stroke: #A80036; stroke-width: 1.0;"/><polygon fill="#A80036" points="680.7531,220.2804,673.6134,219.2681,669.9329,225.4693,677.0726,226.4816,680.7531,220.2804" style="stroke: #A80036; stroke-width: 1.0;"/><text fill="#000000" font-family="sans-serif" font-size="13" lengthAdjust="spacingAndGlyphs" textLength="8" x="664.9763" y="219.4694">1</text><text fill="#000000" font-family="sans-serif" font-size="13" lengthAdjust="spacingAndGlyphs" textLength="8" x="499.6949" y="298.8155">n</text><!--link variants to technical_worflow_procedure_items--><path d="M696.4398,235.2011 C661.0065,280.7971 592.606,360.2055 516,404 C444.8228,444.6909 355.7426,468.4147 284.2481,481.9787 " fill="none" id="variants-technical_worflow_procedure_items" style="stroke: #A80036; stroke-width: 1.0;"/><polygon fill="#A80036" points="704.5182,224.6512,697.6946,226.9831,697.2226,234.1788,704.0463,231.8468,704.5182,224.6512" style="stroke: #A80036; stroke-width: 1.0;"/><text fill="#000000" font-family="sans-serif" font-size="13" lengthAdjust="spacingAndGlyphs" textLength="8" x="691.282" y="244.4493">1</text><text fill="#000000" font-family="sans-serif" font-size="13" lengthAdjust="spacingAndGlyphs" textLength="8" x="292.1851" y="477.5428">n</text><!--link variants to prices--><path d="M722,237.7144 C722,266.1309 722,304.4517 722,328.949 " fill="none" id="variants-prices" style="stroke: #A80036; stroke-width: 1.0;"/><polygon fill="#A80036" points="722,224.6641,718,230.6641,722,236.6641,726,230.6641,722,224.6641" style="stroke: #A80036; stroke-width: 1.0;"/><text fill="#000000" font-family="sans-serif" font-size="13" lengthAdjust="spacingAndGlyphs" textLength="8" x="713.025" y="244.4653">1</text><text fill="#000000" font-family="sans-serif" font-size="13" lengthAdjust="spacingAndGlyphs" textLength="8" x="712.975" y="317.948">n</text><!--link variant_types to variants--><path d="M617.0497,100.4224 C641.6944,123.9229 674.1137,154.837 696.3626,176.0529 " fill="none" id="variant_types-variants" style="stroke: #A80036; stroke-width: 1.0;"/><polygon fill="#A80036" points="607.3529,91.1758,608.9347,98.2113,616.0373,99.4571,614.4556,92.4216,607.3529,91.1758" style="stroke: #A80036; stroke-width: 1.0;"/><text fill="#000000" font-family="sans-serif" font-size="13" lengthAdjust="spacingAndGlyphs" textLength="8" x="604.5577" y="110.9799">1</text><text fill="#000000" font-family="sans-serif" font-size="13" lengthAdjust="spacingAndGlyphs" textLength="8" x="681.1385" y="165.3489">n</text><!--link variant_categories to variants--><path d="M741.533,103.9203 C736.8809,126.9224 731.0254,155.8742 726.9444,176.0529 " fill="none" id="variant_categories-variants" style="stroke: #A80036; stroke-width: 1.0;"/><polygon fill="#A80036" points="744.1105,91.1758,739.0005,96.2638,741.7317,102.9377,746.8417,97.8497,744.1105,91.1758" style="stroke: #A80036; stroke-width: 1.0;"/><text fill="#000000" font-family="sans-serif" font-size="13" lengthAdjust="spacingAndGlyphs" textLength="8" x="733.9437" y="110.9799">1</text><text fill="#000000" font-family="sans-serif" font-size="13" lengthAdjust="spacingAndGlyphs" textLength="8" x="719.1746" y="165.3489">n</text><!--link prices to units--><path d="M722,377.1089 C722,400.1449 722,435.2021 722,461.816 " fill="none" id="prices-units" style="stroke: #A80036; stroke-width: 1.0;"/><polygon fill="#A80036" points="722,474.8553,726,468.8553,722,462.8553,718,468.8553,722,474.8553" style="stroke: #A80036; stroke-width: 1.0;"/><text fill="#000000" font-family="sans-serif" font-size="13" lengthAdjust="spacingAndGlyphs" textLength="8" x="713.025" y="396.8967">n</text><text fill="#000000" font-family="sans-serif" font-size="13" lengthAdjust="spacingAndGlyphs" textLength="8" x="712.975" y="463.8303">1</text><!--link intervention_models to intervention_model_items--><path d="M397.5985,244.5298 C398.8087,265.0369 400.2438,289.3541 401.4482,309.7616 " fill="none" id="intervention_models-intervention_model_items" style="stroke: #A80036; stroke-width: 1.0;"/><polygon fill="#A80036" points="396.8213,231.3607,393.1818,237.586,397.5284,243.3399,401.1679,237.1146,396.8213,231.3607" style="stroke: #A80036; stroke-width: 1.0;"/><text fill="#000000" font-family="sans-serif" font-size="13" lengthAdjust="spacingAndGlyphs" textLength="8" x="388.406" y="250.7714">1</text><text fill="#000000" font-family="sans-serif" font-size="13" lengthAdjust="spacingAndGlyphs" textLength="8" x="392.445" y="299.0376">n</text><!--link intervention_models to technical_worflow_procedures--><path d="M337.5522,238.4255 C298.3254,264.322 247.0262,298.1883 210.3942,322.3718 " fill="none" id="intervention_models-technical_worflow_procedures" style="stroke: #A80036; stroke-width: 1.0;"/><polygon fill="#A80036" points="348.5316,231.1772,341.3206,231.1447,338.5171,237.7885,345.7281,237.821,348.5316,231.1772" style="stroke: #A80036; stroke-width: 1.0;"/><text fill="#000000" font-family="sans-serif" font-size="13" lengthAdjust="spacingAndGlyphs" textLength="8" x="330.5956" y="250.7925">1</text><text fill="#000000" font-family="sans-serif" font-size="13" lengthAdjust="spacingAndGlyphs" textLength="8" x="211.138" y="311.6086">n</text><!--link technical_worflows to technical_worflow_procedures--><path d="M176.3686,263.1803 C173.5553,283.6105 170.557,305.3837 168.2171,322.3758 " fill="none" id="technical_worflows-technical_worflow_procedures" style="stroke: #A80036; stroke-width: 1.0;"/><polygon fill="#A80036" points="178.1819,250.0124,173.4007,255.4106,176.5448,261.9002,181.3259,256.502,178.1819,250.0124" style="stroke: #A80036; stroke-width: 1.0;"/><text fill="#000000" font-family="sans-serif" font-size="13" lengthAdjust="spacingAndGlyphs" textLength="8" x="168.593" y="270.4467">1</text><text fill="#000000" font-family="sans-serif" font-size="13" lengthAdjust="spacingAndGlyphs" textLength="8" x="160.2619" y="311.6134">n</text><!--link technical_worflow_procedures to technical_worflow_procedure_items--><path d="M162.2069,396.6329 C161.4356,415.4003 160.5366,437.2754 159.7682,455.9748 " fill="none" id="technical_worflow_procedures-technical_worflow_procedure_items" style="stroke: #A80036; stroke-width: 1.0;"/><polygon fill="#A80036" points="162.7422,383.6064,158.4992,389.4371,162.2494,395.5963,166.4924,389.7656,162.7422,383.6064" style="stroke: #A80036; stroke-width: 1.0;"/><text fill="#000000" font-family="sans-serif" font-size="13" lengthAdjust="spacingAndGlyphs" textLength="8" x="153.6578" y="403.5666">1</text><text fill="#000000" font-family="sans-serif" font-size="13" lengthAdjust="spacingAndGlyphs" textLength="8" x="151.4125" y="444.9668">n</text><!--link technical_worflow_sequences to technical_worflows--><path d="M932.1679,150.4122 C932.1679,150.4122 878.598,116.1551 849.5,107.5 C791.9901,90.394 366.4393,88.5813 309.5,107.5 C286.9224,115.0017 245.2116,143.4946 245.2116,143.4946 " fill="none" id="technical_worflow_sequences-technical_worflows" style="stroke: #A80036; stroke-width: 1.0;"/><polygon fill="#A80036" points="235.7886,150.9247,242.9768,150.3507,245.2116,143.4946,238.0234,144.0686,235.7886,150.9247" style="stroke: #A80036; stroke-width: 1.0;"/><polygon fill="#A80036" points="941.8725,157.4706,939.373,150.7065,932.1679,150.4122,934.6674,157.1763,941.8725,157.4706" style="stroke: #A80036; stroke-width: 1.0;"/><text fill="#000000" font-family="sans-serif" font-size="13" lengthAdjust="spacingAndGlyphs" textLength="8" x="925.2459" y="146.462">n</text><text fill="#000000" font-family="sans-serif" font-size="13" lengthAdjust="spacingAndGlyphs" textLength="8" x="243.4932" y="139.9593">n</text><!--
@startuml

package "TechnicalWorkflows" {
class technical_worflows << (L,orchid) >>
class technical_worflow_procedures << (L,orchid) >>
class technical_worflow_procedure_items << (L,orchid) >>
}

class technical_worflows {
~family
~specie
~production_system
~unit
}

class technical_worflow_procedures {
~procedure_reference
}

class technical_worflow_procedure_items {
~actor_reference
~procedure_item_reference
~unit
}

package "TechnicalWorkflowSequences" {
class technical_worflow_sequences << (L,orchid) >>
}

class technical_worflow_sequences {
~family
~specie
~production_system
}

package "InterventionModels" {
class intervention_models << (L,orchid) >>
class intervention_model_items << (L,orchid) >>
}

class intervention_models {
~procedure_reference
}

class intervention_model_items {
~procedure_item_reference
~indicator_name
~indicator_unit
}

package "Variants" {
class variant_categories << (L,orchid) >>
class variant_types << (L,orchid) >>
class variants << (L,orchid) >>
class variants << (L,orchid) >>
class prices << (L,orchid) >>
class units << (L,orchid) >>
}

articles ()- variants
services ()- variants
doers ()- variants
equipements ()- variants

variants "1" *- - "n" intervention_model_items
variants "1" *- - "n" technical_worflow_procedure_items

variants "1" *- - "n" prices
variant_types "1" *- - "n" variants
variant_categories "1" *- - "n" variants
prices "n" - -* "1" units

intervention_models "1" *- - "n" intervention_model_items
intervention_models "1" *- - "n" technical_worflow_procedures
technical_worflows "1" *- - "n" technical_worflow_procedures
technical_worflow_procedures "1" *- - "n" technical_worflow_procedure_items
technical_worflow_sequences "n" *-* "n" technical_worflows

@enduml

PlantUML version 1.2019.08(Sat Jul 13 21:25:14 CEST 2019)
(GPL source distribution)
Java Runtime: OpenJDK Runtime Environment
JVM: OpenJDK 64-Bit Server VM
Java Version: 1.8.0_212-8u212-b03-0ubuntu1.18.04.1-b03
Operating System: Linux
OS Version: 4.15.0-55-generic
Default Encoding: UTF-8
Language: fr
Country: FR
--></g></svg>